<svg width="56" height="49" viewBox="0 0 56 49" fill="none" xmlns="http://www.w3.org/2000/svg">
<path fill-rule="evenodd" clip-rule="evenodd" d="M31.776 2.18004L43.4038 22.32L55.0315 42.4599C55.832 43.8463 55.832 45.4334 55.0315 46.82C54.2311 48.2064 52.8566 49 51.2556 49H28H4.74441C3.14342 49 1.76898 48.2064 0.96844 46.82C0.167991 45.4335 0.167991 43.8464 0.96844 42.4599L12.5962 22.32L24.224 2.18004C25.0244 0.793553 26.399 0 28 0C29.6009 0 30.9754 0.793553 31.7759 2.18004H31.776Z" fill="#F9C312"/>
<path d="M28.0001 42.5975C29.6132 42.5975 30.9208 41.2898 30.9208 39.6767C30.9208 38.0636 29.6132 36.756 28.0001 36.756C26.387 36.756 25.0794 38.0636 25.0794 39.6767C25.0794 41.2898 26.387 42.5975 28.0001 42.5975Z" fill="black"/>
<path fill-rule="evenodd" clip-rule="evenodd" d="M27.2061 14.4705H28.794C29.3991 14.4705 29.9198 14.688 30.345 15.1184C30.7701 15.5489 30.9813 16.0722 30.9739 16.6772L30.8072 30.2676C30.7925 31.4588 29.8186 32.4209 28.6273 32.4209H27.3728C26.1815 32.4209 25.2076 31.4588 25.1929 30.2676L25.0262 16.6772C25.0188 16.0722 25.2299 15.5489 25.6551 15.1184C26.0803 14.688 26.601 14.4705 27.2061 14.4705H27.2061Z" fill="black"/>
</svg>
