<svg width="76" height="26" viewBox="0 0 76 26" fill="none" xmlns="http://www.w3.org/2000/svg">
<path d="M40.4837 1.81663H0.557385V0.703125H40.4837L41.0411 1.2456L40.4837 1.81663ZM40.4837 0.703125C40.8064 0.703125 41.0411 0.960087 41.0411 1.2456C41.0411 1.55967 40.8064 1.81663 40.4837 1.81663V0.703125ZM39.9264 25.4572V1.2456H41.0411V25.4572L40.4837 25.9996L39.9264 25.4572ZM41.0411 25.4572C41.0411 25.7427 40.8064 25.9996 40.4837 25.9996C40.1904 25.9996 39.9264 25.7427 39.9264 25.4572H41.0411ZM0.557385 24.9147H40.4837V25.9996H0.557385L0 25.4572L0.557385 24.9147ZM0.557385 25.9996C0.234688 25.9996 0 25.7427 0 25.4572C0 25.1431 0.234688 24.9147 0.557385 24.9147V25.9996ZM1.11477 1.2456V25.4572H0V1.2456L0.557385 0.703125L1.11477 1.2456ZM0 1.2456C0 0.960087 0.234688 0.703125 0.557385 0.703125C0.850745 0.703125 1.11477 0.960087 1.11477 1.2456H0Z" fill="#1E1E1E"/>
<path d="M11.4703 13.3792C11.6756 13.579 11.8516 13.8075 11.969 14.0644C12.057 14.3214 12.1157 14.6354 12.1157 14.9495V18.0616C12.1157 18.4328 12.0276 18.7754 11.881 19.0895C11.7343 19.4035 11.5289 19.689 11.2649 19.9174C11.0009 20.1744 10.6782 20.3457 10.3262 20.4885C9.97413 20.6312 9.59276 20.7169 9.21139 20.7169H5.7204C5.51505 20.7169 5.39771 20.6027 5.39771 20.4028V6.29844C5.39771 6.09858 5.51505 5.98438 5.7204 5.98438H9.21139C9.59276 5.98438 9.97413 6.07003 10.3262 6.21279C10.6782 6.35554 11.0009 6.52685 11.2649 6.78381C11.5289 7.01222 11.7343 7.29774 11.881 7.6118C12.0276 7.92587 12.1157 8.26849 12.1157 8.63965V10.7525C12.1157 11.3806 11.9103 11.9231 11.4703 12.3513C11.2356 12.5797 10.9716 12.7796 10.6489 12.9224C10.9716 13.008 11.2649 13.1793 11.4703 13.3792ZM9.41674 14.6069C9.41674 14.4641 9.35807 14.3499 9.24073 14.2643C9.15272 14.1501 9.00604 14.1215 8.85936 14.1215H8.12596V18.4613H8.85936C9.00604 18.4613 9.15272 18.4042 9.24073 18.3186C9.35807 18.2044 9.41674 18.0902 9.41674 17.9474V14.6069ZM9.41674 8.75386C9.41674 8.6111 9.35807 8.4969 9.24073 8.38269C9.15272 8.29704 9.00604 8.23993 8.85936 8.23993H8.12596V11.8089H8.85936C9.00604 11.8089 9.15272 11.7803 9.24073 11.6661C9.35807 11.5804 9.41674 11.4662 9.41674 11.3235V8.75386Z" fill="#1E1E1E"/>
<path d="M20.3298 20.4028C20.3592 20.6027 20.2712 20.7169 20.0658 20.7169H17.9536C17.7483 20.7169 17.6309 20.6027 17.6016 20.4028L17.4256 18.1473H15.9881L15.8121 20.4028C15.7828 20.6027 15.6654 20.7169 15.4601 20.7169H13.3479C13.1425 20.7169 13.0252 20.6027 13.0545 20.4028L14.8147 6.29844C14.844 6.09858 14.9614 5.98438 15.1667 5.98438H18.2177C18.4523 5.98438 18.5697 6.09858 18.599 6.29844L20.3298 20.4028ZM17.2202 15.7775L16.7802 10.0958H16.6042L16.1641 15.7775H17.2202Z" fill="#1E1E1E"/>
<path d="M25.3169 5.8418C25.7276 5.8418 26.0796 5.92745 26.461 6.07021C26.813 6.21296 27.1064 6.38427 27.3704 6.64124C27.6344 6.86965 27.8398 7.15516 27.9864 7.46923C28.1625 7.78329 28.2211 8.12591 28.2211 8.49708V9.29651C28.2211 9.49637 28.1331 9.61058 27.9278 9.66768L25.8156 10.1816C25.6102 10.2387 25.5222 10.1531 25.5222 9.98175V8.61128C25.5222 8.46852 25.4635 8.35432 25.3462 8.24011C25.2582 8.15446 25.1115 8.09736 24.9648 8.09736H24.7888C24.6128 8.09736 24.4955 8.15446 24.3781 8.24011C24.2901 8.35432 24.2314 8.46852 24.2314 8.61128V10.5242C24.2314 10.667 24.2608 10.8097 24.3194 10.9239C24.3488 11.0381 24.4368 11.1238 24.5835 11.238L27.6051 13.3223C27.8398 13.4936 28.0158 13.6934 28.0744 13.9218C28.1625 14.1217 28.1918 14.3501 28.2211 14.5785V18.2045C28.2211 18.5757 28.1625 18.9183 27.9864 19.2324C27.8398 19.5465 27.6344 19.832 27.3704 20.0889C27.1064 20.3173 26.813 20.5172 26.461 20.6314C26.0796 20.7742 25.7276 20.8598 25.3169 20.8598H24.4368C24.0261 20.8598 23.6447 20.7742 23.2927 20.6314C22.9406 20.5172 22.6473 20.3173 22.3833 20.0889C22.1192 19.832 21.9139 19.5465 21.7379 19.2324C21.5912 18.9183 21.5032 18.5757 21.5032 18.2045V16.1774C21.5032 16.0061 21.6205 15.8633 21.8259 15.8062L23.9381 15.2923C24.1141 15.2638 24.2314 15.3209 24.2314 15.5207V18.0903C24.2314 18.2331 24.2901 18.3473 24.3781 18.4615C24.4955 18.5472 24.6128 18.6043 24.7888 18.6043H24.9648C25.1115 18.6043 25.2582 18.5472 25.3462 18.4615C25.4635 18.3473 25.5222 18.2331 25.5222 18.0903V15.3209C25.4929 15.1495 25.4635 14.9782 25.4342 14.8355C25.3755 14.6927 25.2875 14.5785 25.1408 14.4643L22.1779 12.3801C21.9432 12.1802 21.7672 11.9803 21.6792 11.809C21.5618 11.6092 21.5032 11.3522 21.5032 11.0096V8.49708C21.5032 8.12591 21.5912 7.78329 21.7379 7.46923C21.9139 7.15516 22.1192 6.86965 22.3833 6.64124C22.6473 6.38427 22.9406 6.21296 23.2927 6.07021C23.6447 5.92745 24.0261 5.8418 24.4368 5.8418H25.3169Z" fill="#1E1E1E"/>
<path d="M35.3204 18.2615C35.5258 18.2615 35.6431 18.3471 35.6431 18.547V20.4028C35.6431 20.6027 35.5258 20.7169 35.3204 20.7169H30.2746C30.0692 20.7169 29.9519 20.6027 29.9519 20.4028V6.29844C29.9519 6.09858 30.0692 5.98438 30.2746 5.98438H35.3204C35.5258 5.98438 35.6431 6.09858 35.6431 6.29844V8.15428C35.6431 8.35414 35.5258 8.46835 35.3204 8.46835H32.6802V11.4948H34.9684C35.1737 11.4948 35.2911 11.5804 35.2911 11.7803V13.6361C35.2911 13.836 35.1737 13.9502 34.9684 13.9502H32.6802V18.2615H35.3204Z" fill="#1E1E1E"/>
<path d="M51.4261 13.3792C51.6314 13.579 51.8074 13.8075 51.8955 14.0644C52.0128 14.3214 52.0715 14.6354 52.0715 14.9495V18.0616C52.0715 18.4328 51.9835 18.7754 51.8368 19.0895C51.6901 19.4035 51.4554 19.689 51.2207 19.9174C50.9567 20.1744 50.634 20.3457 50.282 20.4885C49.9299 20.6312 49.5486 20.7169 49.1379 20.7169H45.6762C45.4709 20.7169 45.3535 20.6027 45.3535 20.4028V6.29844C45.3535 6.09858 45.4709 5.98438 45.6762 5.98438H49.1379C49.5486 5.98438 49.9299 6.07003 50.282 6.21279C50.634 6.35554 50.9567 6.52685 51.2207 6.78381C51.4554 7.01222 51.6901 7.29774 51.8368 7.6118C51.9835 7.92587 52.0715 8.26849 52.0715 8.63965V10.7525C52.0715 11.3806 51.8368 11.9231 51.4261 12.3513C51.1914 12.5797 50.898 12.7796 50.5753 12.9224C50.9274 13.008 51.1914 13.1793 51.4261 13.3792ZM49.3432 14.6069C49.3432 14.4641 49.3139 14.3499 49.1965 14.2643C49.0792 14.1501 48.9618 14.1215 48.7858 14.1215H48.0524V18.4613H48.7858C48.9618 18.4613 49.0792 18.4042 49.1965 18.3186C49.3139 18.2044 49.3432 18.0902 49.3432 17.9474V14.6069ZM49.3432 8.75386C49.3432 8.6111 49.3139 8.4969 49.1965 8.38269C49.0792 8.29704 48.9618 8.23993 48.7858 8.23993H48.0524V11.8089H48.7858C48.9618 11.8089 49.0792 11.7803 49.1965 11.6661C49.3139 11.5804 49.3432 11.4662 49.3432 11.3235V8.75386Z" fill="#1E1E1E"/>
<path d="M60.8136 5.98438C60.9016 5.98438 60.9896 6.04148 61.019 6.09858C61.0776 6.15568 61.0776 6.21279 61.0483 6.29844L58.3787 14.9781V20.4028C58.3787 20.6027 58.2614 20.7169 58.056 20.7169H56.0025C55.7972 20.7169 55.6798 20.6027 55.6798 20.4028V14.9781L53.0102 6.29844C52.9809 6.21279 52.9809 6.15568 53.0396 6.09858C53.0689 6.04148 53.1569 5.98438 53.2449 5.98438H55.7092C55.9145 5.98438 56.0319 6.09858 56.0612 6.29844L56.9706 11.5804H57.0879L57.9974 6.29844C58.0267 6.09858 58.144 5.98438 58.3494 5.98438H60.8136Z" fill="#1E1E1E"/>
<path d="M68.2062 5.98438C68.4115 5.98438 68.5289 6.09858 68.5289 6.29844V8.15428C68.5289 8.35414 68.4115 8.46835 68.2062 8.46835H66.5634V20.4028C66.5634 20.6027 66.446 20.7169 66.2407 20.7169H64.1578C64.0991 20.7169 64.0111 20.6883 63.9524 20.6312C63.8938 20.5741 63.8351 20.4885 63.8351 20.4028V8.46835H62.2216C62.0163 8.46835 61.8989 8.35414 61.8989 8.15428V6.29844C61.8989 6.09858 62.0163 5.98438 62.2216 5.98438H68.2062Z" fill="#1E1E1E"/>
<path d="M75.4815 18.2615C75.7162 18.2615 75.8042 18.3471 75.8042 18.547V20.4028C75.8042 20.6027 75.7162 20.7169 75.4815 20.7169H70.465C70.2597 20.7169 70.1423 20.6027 70.1423 20.4028V6.29844C70.1423 6.09858 70.2597 5.98438 70.465 5.98438H75.4815C75.7162 5.98438 75.8042 6.09858 75.8042 6.29844V8.15428C75.8042 8.35414 75.7162 8.46835 75.4815 8.46835H72.8412V11.4948H75.1295C75.3642 11.4948 75.4522 11.5804 75.4522 11.7803V13.6361C75.4522 13.836 75.3642 13.9502 75.1295 13.9502H72.8412V18.2615H75.4815Z" fill="#1E1E1E"/>
</svg>
