<svg width="26" height="26" viewBox="0 0 26 26" fill="none" xmlns="http://www.w3.org/2000/svg">
<path d="M25.9834 12.6812C25.9834 16.1743 24.5599 19.3529 22.2426 21.6375C19.9252 23.9221 16.7471 25.3458 13.2214 25.3458C12.1289 25.3458 11.053 25.2134 10.0433 24.9485C9.01703 24.6836 8.05698 24.3029 7.14659 23.8228L0.293809 25.9915C0.17794 26.0246 0.0455197 25.9584 0.0124145 25.8425C-0.00413815 25.7928 -0.00413815 25.7432 0.0124145 25.71L2.24702 19.1211C1.68423 18.1775 1.23731 17.1511 0.93936 16.075V16.0584C0.641413 14.9823 0.475887 13.84 0.475887 12.6646C0.475887 9.17152 1.91596 5.99294 4.21678 3.70834C6.51759 1.42374 9.71224 0 13.2379 0C16.7636 0 19.9583 1.42374 22.2591 3.70834C24.5599 5.99294 26 9.17152 26 12.6646L25.9834 12.6812ZM19.6604 15.5949C19.5776 15.4624 19.379 15.3962 19.0645 15.2307C18.75 15.0651 17.2106 14.3201 16.9292 14.2208C16.6478 14.1215 16.4326 14.0718 16.2174 14.3698C16.0188 14.6844 15.4063 15.3797 15.2243 15.5949C15.0422 15.8101 14.8601 15.8267 14.5456 15.6777C14.2311 15.5287 13.2214 15.1976 12.0296 14.138C11.1027 13.3103 10.4737 12.3004 10.2916 11.9859C10.1095 11.6713 10.275 11.5058 10.424 11.3568C10.5564 11.2078 10.7385 10.9926 10.8875 10.8105C11.0364 10.6284 11.1027 10.4959 11.202 10.2973C11.3013 10.0986 11.2516 9.91649 11.1689 9.75094C11.0861 9.60195 10.4737 8.07888 10.2088 7.44979C9.94398 6.82069 9.67913 6.93658 9.49706 6.93658C9.31498 6.93658 9.09979 6.92002 8.90116 6.92002C8.68598 6.92002 8.35493 6.98625 8.07353 7.30079C7.79214 7.61534 6.98106 8.36032 6.98106 9.88338C6.98106 11.4065 8.09008 12.8799 8.25561 13.0951C8.40458 13.2937 10.424 16.5385 13.6021 17.7802C16.7802 19.0218 16.7802 18.6079 17.3595 18.5582C17.9389 18.5086 19.2134 17.8133 19.4617 17.0848C19.7266 16.3564 19.7266 15.7439 19.6438 15.6114L19.6604 15.5949ZM13.2214 2.45015C10.3743 2.45015 7.79214 3.60901 5.93825 5.44662C4.0678 7.30079 2.90912 9.86683 2.90912 12.6812C2.90912 13.7738 3.0912 14.8334 3.4057 15.8267C3.73675 16.8531 4.23333 17.8133 4.86233 18.6741C4.91198 18.7404 4.91198 18.8066 4.89543 18.8728L3.7202 22.3328L7.34522 21.174C7.41143 21.1574 7.47764 21.1574 7.5273 21.2071C8.35493 21.7534 9.26532 22.1838 10.2419 22.4652C11.1689 22.7467 12.1786 22.8957 13.2048 22.8957C16.0519 22.8957 18.6341 21.7534 20.5045 19.8992C22.375 18.045 23.5337 15.4956 23.5337 12.6646C23.5337 9.83372 22.375 7.28424 20.5045 5.43007C18.6341 3.5759 16.0519 2.4336 13.2048 2.4336L13.2214 2.45015Z" fill="#FEEEDF"/>
</svg>
